<svg xmlns="http://www.w3.org/2000/svg" viewBox="0 0 32 32" fill="none">
  <circle cx="16" cy="16" r="16" fill="#213147"/>
  <path d="M16.62 11.17l3.46 5.73 1.54-2.48-3.73-6.18a.56.56 0 0 0-.48-.28h-.57l-.22 3.21z" fill="#12AAFF"/>
  <path d="M12.98 17.66l1.46 2.42 1.54-2.48-2.24-3.71-.76 3.77z" fill="#12AAFF"/>
  <path d="M21.61 20.54l1.47-2.38-5.1-8.44h-1.86l5.49 10.82z" fill="#9DCCED"/>
  <path d="M10.39 20.54l3.51.01 2.22-3.59-1.46-2.42-4.27 5.99z" fill="#9DCCED"/>
  <path d="M16 6a10 10 0 1 0 0 20 10 10 0 0 0 0-20zm7.07 15.61L16.02 8.24a.56.56 0 0 0-.48-.28H14.2l-5.27 12.65 1.45.01 5.64-8.8 5.6 9.22 1.45-.43z" fill="white" opacity="0"/>
</svg>
